<?xml version="1.0" encoding="UTF-8"?>
<svg xmlns="http://www.w3.org/2000/svg" version="1.1" viewBox="0 0 400 200">
  <defs>
    <style>
      .cls-1 {
        fill: #fff;
      }
    </style>
  </defs>
  <!-- Generator: Adobe Illustrator 28.7.1, SVG Export Plug-In . SVG Version: 1.2.0 Build 142)  -->
  <g>
    <g id="Capa_1">
      <path class="cls-1" d="M359.6,197.9c-.6,0-1.1-.1-1.7-.4-1.4-.7-2.3-2.1-2.3-3.6,0-.7.1-73.9.1-76.7s-1.1-3.3-2.8-4.3c-1.7-1-14.7-7.7-25.8-13.3.2,16.1.8,56.1.8,58.6s1.6,6.7,3.9,8.9c3.6,3.4,19.9,17.3,20.1,17.4,1.7,1.4,1.9,3.9.5,5.6-1.4,1.7-3.9,1.9-5.6.5-.7-.6-16.7-14.2-20.4-17.7-3.6-3.5-6.4-9.8-6.4-14.7s-.9-64.4-.9-65c0-1.4.7-2.7,1.9-3.4,1.2-.7,2.6-.8,3.9-.2,3,1.5,29.3,14.8,32.1,16.5,4,2.4,6.7,6.9,6.7,11.2s0,48.4,0,68c8.2-7,21.3-18.3,22.7-19.5.9-.7.9-.9.8-1.8-.2-1.9,0-51.2.1-74.5-8,4.2-21.3,11.2-22.8,11.9-3.3,1.5-7.3,1.2-10.5-.8-1.5-1-19.7-10.6-30.8-16.4-1.4-.7-2.2-2.3-2.1-3.9s1.2-3,2.7-3.5c10.3-3.5,27.3-9.4,29-10.2,3.3-1.5,5.4-1.9,9.5,0,2.2,1,13.9,5.6,18.2,7.2,2,.8,3.1,3.1,2.3,5.2-.8,2.1-3.1,3.1-5.1,2.3-1.6-.6-15.9-6.1-18.7-7.5-1.1-.5-1.4-.5-1.4-.5-.1,0-.4.1-1.4.6-1.7.8-12.7,4.6-21,7.5,9,4.7,21.7,11.5,23.2,12.4.9.6,2.1.7,2.9.3,1.4-.7,17.7-9.2,28.2-14.8,1.2-.6,2.7-.6,3.9.1,1.2.7,1.9,2,1.9,3.4-.1,30.9-.3,77.7-.2,80.4.3,3.6-.8,6.3-3.7,8.7-2,1.7-28.9,24.8-29.2,25-.7.6-1.6,1-2.6,1"/>
      <path class="cls-1" d="M312.9,96.4s0,0-.1,0l-33.7-1c-2.2,0-3.9-1.9-3.8-4.1,0-2.2,1.9-3.9,4.1-3.9l33.7,1c2.2,0,3.9,1.9,3.8,4.1,0,2.2-1.8,3.9-4,3.9"/>
      <path class="cls-1" d="M314.1,167.8h0c-.2,0-18.8-.2-27-.1h0c-2.4,0-4.5-.9-6.2-2.5-2.4-2.4-3.7-6.4-3.7-11.8s-2-61.2-2.1-61.7c0-2.2,1.6-4.1,3.8-4.1,2.2,0,4,1.6,4.1,3.8,0,2.3,2.1,56.7,2.1,62s.7,5.5,1.3,6.1c0,.1.2.2.6.2h0c8.2,0,26.9.1,27.1.1,2.2,0,3.9,1.8,3.9,4,0,2.2-1.8,4-4,4"/>
      <path class="cls-1" d="M358.4,62.7c-16.6,0-30.1-13.6-30.1-30.4s13.5-30.4,30.1-30.4,30.1,13.6,30.1,30.4-13.5,30.4-30.1,30.4M358.4,10c-12.2,0-22.1,10-22.1,22.4s9.9,22.4,22.1,22.4,22.1-10,22.1-22.4c0-12.3-9.9-22.4-22.1-22.4"/>
      <path class="cls-1" d="M332.6,163.3c-.7,0-1.3-.4-1.7-1-.6-1-.2-2.2.7-2.7l19-11.3c.9-.6,2.2-.2,2.7.7.6,1,.2,2.2-.7,2.7l-19,11.3c-.3.2-.7.3-1,.3"/>
      <path class="cls-1" d="M383.6,164.8c-.4,0-.8-.1-1.2-.4l-15.6-12c-.9-.7-1-1.9-.4-2.8s1.9-1,2.8-.4l15.6,12c.9.7,1,1.9.4,2.8-.4.5-1,.8-1.6.8"/>
      <path class="cls-1" d="M4.9,64.5c0,3.3,1.1,6.1,3.4,8.4,2.3,2.3,5.1,3.5,8.3,3.5s6.4-1.2,8.7-3.5c2.3-2.3,3.4-5.1,3.4-8.4s-1.1-6.4-3.4-8.7-5.2-3.5-8.7-3.5-6,1.2-8.3,3.5c-2.3,2.3-3.4,5.2-3.4,8.7"/>
      <rect class="cls-1" x="7.2" y="85.5" width="18.9" height="82.5"/>
      <path class="cls-1" d="M39,85.5v82.5h19.1l-.2-48.7c0-2.3.5-4.6,1.5-6.8,1-2.2,2.3-4.1,3.9-5.8,1.6-1.6,3.5-3,5.7-4,2.2-1,4.5-1.6,7-1.6s4.8.5,7,1.5c2.2,1,4.1,2.3,5.7,4s2.9,3.6,3.8,5.8c.9,2.2,1.4,4.5,1.4,6.9l.2,48.7h19.3l-.2-48.7c0-5.2-1-10-2.9-14.6-2-4.6-4.7-8.6-8.1-12-3.4-3.4-7.4-6.1-11.9-8.1-4.5-2-9.3-3-14.3-3-3.8.1-7.2.9-10.3,2.3-3,1.4-5.7,3.5-7.8,6.3v-4.8s-18.9,0-18.9,0Z"/>
      <path class="cls-1" d="M209.8,109c-2.3-5.4-5.5-10.2-9.5-14.2-4-4-8.7-7.2-14-9.6-5.4-2.4-11.2-3.5-17.4-3.5s-12,1.2-17.4,3.5c-5.4,2.4-10.1,5.6-14.1,9.6-4,4-7.2,8.7-9.6,14.2-2.3,5.4-3.5,11.3-3.5,17.6s1.1,12.1,3.2,17.6c2.1,5.4,5.1,10.2,9,14.3,3.9,4.1,8.5,7.3,14,9.6,5.5,2.3,11.6,3.5,18.4,3.5s18-2.7,25.5-8.1v4.6h18.9v-41.4c0-6.3-1.2-12.1-3.5-17.6M192.4,136.9c-1.3,3.1-3.1,5.9-5.5,8.2s-5.1,4.1-8.2,5.4c-3.1,1.3-6.4,1.9-9.9,1.9s-6.8-.7-9.9-2.1c-3.1-1.4-5.8-3.2-8.1-5.5-2.3-2.3-4.1-5-5.5-8.2-1.4-3.1-2-6.5-2-10s.7-6.8,2-10c1.4-3.1,3.2-5.9,5.5-8.2,2.3-2.3,5-4.1,8.1-5.5,3.1-1.4,6.4-2.1,9.9-2.1s6.8.7,9.9,2.1c3.1,1.4,5.8,3.2,8.1,5.5,2.3,2.3,4.1,5,5.5,8.2,1.4,3.1,2,6.5,2,10,0,3.7-.7,7.2-2,10.3"/>
      <path class="cls-1" d="M222.3,64.5c0,3.3,1.1,6.1,3.4,8.4,2.3,2.3,5.1,3.5,8.3,3.5s6.4-1.2,8.7-3.5c2.3-2.3,3.4-5.1,3.4-8.4s-1.1-6.4-3.4-8.7-5.2-3.5-8.7-3.5-6,1.2-8.3,3.5c-2.3,2.3-3.4,5.2-3.4,8.7"/>
      <rect class="cls-1" x="224.6" y="85.5" width="18.9" height="82.5"/>
    </g>
  </g>
</svg>